<?xml version="1.0" encoding="UTF-8" standalone="no"?>
<!DOCTYPE svg PUBLIC "-//W3C//DTD SVG 1.1//EN"
 "http://www.w3.org/Graphics/SVG/1.1/DTD/svg11.dtd">
<!-- Generated by graphviz version 2.36.0 (20140111.2315)
 -->
<!-- Title: metro_lib Pages: 1 -->
<svg width="475pt" height="653pt"
 viewBox="72.00 72.00 403.00 581.00" xmlns="http://www.w3.org/2000/svg" xmlns:xlink="http://www.w3.org/1999/xlink">
<g id="graph0" class="graph" transform="scale(1 1) rotate(0) translate(76 577)">
<title>metro_lib</title>
<polygon fill="white" stroke="none" points="-4,4 -4,-505 327,-505 327,4 -4,4"/>
<text text-anchor="start" x="8" y="-7" font-family="Courier,monospace" font-size="10.00" fill="#8b8989">Entities Diagram for the London Underground Example</text>
<g id="clust1" class="cluster"><title>cluster_library_metro_lib</title>
<g id="a_clust1"><a xlink:title="/Users/sergioc/Documents/workspaces/heal/jpc_examples/src/main/resources/org/jpc/examples/metro/">
<path fill="#eee9e9" stroke="#8b8989" d="M44.5,-27C44.5,-27 278.5,-27 278.5,-27 284.5,-27 290.5,-33 290.5,-39 290.5,-39 290.5,-481 290.5,-481 290.5,-487 284.5,-493 278.5,-493 278.5,-493 44.5,-493 44.5,-493 38.5,-493 32.5,-487 32.5,-481 32.5,-481 32.5,-39 32.5,-39 32.5,-33 38.5,-27 44.5,-27"/>
<text text-anchor="middle" x="68" y="-34" font-family="Courier,monospace" font-size="10.00" fill="#8b8989">metro_lib</text>
</a>
</g>
</g>
<g id="clust3" class="cluster"><title>cluster_file_/Users/sergioc/Documents/workspaces/heal/jpc_examples/src/main/resources/org/jpc/examples/metro/metro.lgt</title>
<g id="a_clust3"><a xlink:title="/Users/sergioc/Documents/workspaces/heal/jpc_examples/src/main/resources/org/jpc/examples/metro/metro.lgt">
<path fill="snow" stroke="#8b8989" d="M107.5,-236C107.5,-236 183.5,-236 183.5,-236 189.5,-236 195.5,-242 195.5,-248 195.5,-248 195.5,-335 195.5,-335 195.5,-341 189.5,-347 183.5,-347 183.5,-347 107.5,-347 107.5,-347 101.5,-347 95.5,-341 95.5,-335 95.5,-335 95.5,-248 95.5,-248 95.5,-242 101.5,-236 107.5,-236"/>
<text text-anchor="middle" x="131" y="-243" font-family="Courier,monospace" font-size="10.00" fill="#8b8989">metro.lgt</text>
</a>
</g>
</g>
<g id="clust4" class="cluster"><title>cluster_file_/Users/sergioc/Documents/workspaces/heal/jpc_examples/src/main/resources/org/jpc/examples/metro/station.lgt</title>
<g id="a_clust4"><a xlink:title="/Users/sergioc/Documents/workspaces/heal/jpc_examples/src/main/resources/org/jpc/examples/metro/station.lgt">
<path fill="snow" stroke="#8b8989" d="M186.5,-56C186.5,-56 268.5,-56 268.5,-56 274.5,-56 280.5,-62 280.5,-68 280.5,-68 280.5,-163 280.5,-163 280.5,-169 274.5,-175 268.5,-175 268.5,-175 186.5,-175 186.5,-175 180.5,-175 174.5,-169 174.5,-163 174.5,-163 174.5,-68 174.5,-68 174.5,-62 180.5,-56 186.5,-56"/>
<text text-anchor="middle" x="216" y="-63" font-family="Courier,monospace" font-size="10.00" fill="#8b8989">station.lgt</text>
</a>
</g>
</g>
<g id="clust5" class="cluster"><title>cluster_file_/Users/sergioc/Documents/workspaces/heal/jpc_examples/src/main/resources/org/jpc/examples/metro/line.lgt</title>
<g id="a_clust5"><a xlink:title="/Users/sergioc/Documents/workspaces/heal/jpc_examples/src/main/resources/org/jpc/examples/metro/line.lgt">
<path fill="snow" stroke="#8b8989" d="M54.5,-69C54.5,-69 152.5,-69 152.5,-69 158.5,-69 164.5,-75 164.5,-81 164.5,-81 164.5,-150 164.5,-150 164.5,-156 158.5,-162 152.5,-162 152.5,-162 54.5,-162 54.5,-162 48.5,-162 42.5,-156 42.5,-150 42.5,-150 42.5,-81 42.5,-81 42.5,-75 48.5,-69 54.5,-69"/>
<text text-anchor="middle" x="75" y="-76" font-family="Courier,monospace" font-size="10.00" fill="#8b8989">line.lgt</text>
</a>
</g>
</g>
<g id="clust8" class="cluster"><title>cluster_other</title>
<g id="a_clust8"><a xlink:title="(external entities)">
<path fill="white" stroke="#8b8989" d="M92.5,-408C92.5,-408 199.5,-408 199.5,-408 205.5,-408 211.5,-414 211.5,-420 211.5,-420 211.5,-471 211.5,-471 211.5,-477 205.5,-483 199.5,-483 199.5,-483 92.5,-483 92.5,-483 86.5,-483 80.5,-477 80.5,-471 80.5,-471 80.5,-420 80.5,-420 80.5,-414 86.5,-408 92.5,-408"/>
<text text-anchor="middle" x="146" y="-415" font-family="Courier,monospace" font-size="10.00" fill="#8b8989">(external entities)</text>
</a>
</g>
</g>
<!-- metro -->
<g id="node1" class="node"><title>metro</title>
<g id="a_node1"><a xlink:title="prototype">
<polygon fill="beige" stroke="black" points="185.5,-336.5 105.5,-336.5 105.5,-265.5 185.5,-265.5 185.5,-336.5"/>
<text text-anchor="start" x="132" y="-326.3" font-family="Courier,monospace" font-weight="bold" font-size="9.00">metro</text>
<text text-anchor="start" x="142.5" y="-317.3" font-family="Courier,monospace" font-size="9.00"> </text>
<text text-anchor="start" x="116.5" y="-308.3" font-family="Courier,monospace" font-size="9.00">connected/3</text>
<text text-anchor="start" x="124" y="-299.3" font-family="Courier,monospace" font-size="9.00">nearby/2</text>
<text text-anchor="start" x="116.5" y="-290.3" font-family="Courier,monospace" font-size="9.00">reachable/3</text>
<text text-anchor="start" x="129.5" y="-281.3" font-family="Courier,monospace" font-size="9.00">line/1</text>
<text text-anchor="start" x="113.5" y="-272.3" font-family="Courier,monospace" font-size="9.00">remove_all/0</text>
</a>
</g>
</g>
<!-- list -->
<g id="node4" class="node"><title>list</title>
<g id="a_node4"><a xlink:title="prototype">
<polygon fill="beige" stroke="black" stroke-dasharray="5,2" points="172.5,-473 118.5,-473 118.5,-437 172.5,-437 172.5,-473"/>
<text text-anchor="start" x="134.5" y="-453.8" font-family="Courier,monospace" font-weight="bold" font-size="9.00">list</text>
</a>
</g>
</g>
<!-- metro&#45;&gt;list -->
<g id="edge1" class="edge"><title>metro&#45;&gt;list</title>
<g id="a_edge1"><a xlink:title="uses">
<path fill="none" stroke="black" d="M145.5,-336.872C145.5,-363.321 145.5,-399.28 145.5,-424.351"/>
<polygon fill="black" stroke="black" points="145.5,-424.695 149.5,-430.696 145.5,-436.695 145.5,-424.695"/>
</a>
</g>
<text text-anchor="start" x="145.5" y="-384.8" font-family="Courier,monospace" font-size="9.00">uses</text>
</g>
<!-- station(Name) -->
<g id="node2" class="node"><title>station(Name)</title>
<g id="a_node2"><a xlink:title="prototype">
<polygon fill="beige" stroke="black" points="270,-165 185,-165 185,-85 270,-85 270,-165"/>
<text text-anchor="start" x="193" y="-154.8" font-family="Courier,monospace" font-weight="bold" font-size="9.00">station(Name)</text>
<text text-anchor="start" x="224.5" y="-145.8" font-family="Courier,monospace" font-size="9.00"> </text>
<text text-anchor="start" x="211.5" y="-136.8" font-family="Courier,monospace" font-size="9.00">name/1</text>
<text text-anchor="start" x="198.5" y="-127.8" font-family="Courier,monospace" font-size="9.00">connected/1</text>
<text text-anchor="start" x="198.5" y="-118.8" font-family="Courier,monospace" font-size="9.00">connected/2</text>
<text text-anchor="start" x="206" y="-109.8" font-family="Courier,monospace" font-size="9.00">nearby/1</text>
<text text-anchor="start" x="198.5" y="-100.8" font-family="Courier,monospace" font-size="9.00">reachable/1</text>
<text text-anchor="start" x="198.5" y="-91.8" font-family="Courier,monospace" font-size="9.00">reachable/2</text>
</a>
</g>
</g>
<!-- station(Name)&#45;&gt;metro -->
<g id="edge2" class="edge"><title>station(Name)&#45;&gt;metro</title>
<g id="a_edge2"><a xlink:title="uses">
<path fill="none" stroke="black" d="M209.098,-165.049C196.606,-191.556 180.044,-226.7 166.953,-254.478"/>
<polygon fill="black" stroke="black" points="166.875,-254.644 167.935,-261.777 161.759,-265.499 166.875,-254.644"/>
</a>
</g>
<text text-anchor="start" x="186.5" y="-212.8" font-family="Courier,monospace" font-size="9.00">uses</text>
</g>
<!-- line(Name) -->
<g id="node3" class="node"><title>line(Name)</title>
<g id="a_node3"><a xlink:title="prototype">
<polygon fill="beige" stroke="black" points="154,-151.5 53,-151.5 53,-98.5 154,-98.5 154,-151.5"/>
<text text-anchor="start" x="77" y="-141.3" font-family="Courier,monospace" font-weight="bold" font-size="9.00">line(Name)</text>
<text text-anchor="start" x="100.5" y="-132.3" font-family="Courier,monospace" font-size="9.00"> </text>
<text text-anchor="start" x="87.5" y="-123.3" font-family="Courier,monospace" font-size="9.00">name/1</text>
<text text-anchor="start" x="77" y="-114.3" font-family="Courier,monospace" font-size="9.00">connects/2</text>
<text text-anchor="start" x="61" y="-105.3" font-family="Courier,monospace" font-size="9.00">add_connection/2</text>
</a>
</g>
</g>
<!-- line(Name)&#45;&gt;metro -->
<g id="edge3" class="edge"><title>line(Name)&#45;&gt;metro</title>
<g id="a_edge3"><a xlink:title="uses">
<path fill="none" stroke="black" d="M109.697,-151.674C116.131,-178.33 126.338,-220.614 134.21,-253.227"/>
<polygon fill="black" stroke="black" points="134.284,-253.535 139.58,-258.429 137.1,-265.2 134.284,-253.535"/>
</a>
</g>
<text text-anchor="start" x="125.5" y="-212.8" font-family="Courier,monospace" font-size="9.00">uses</text>
</g>
</g>
</svg>
