<?xml version="1.0" encoding="UTF-8" standalone="no"?>
<!DOCTYPE svg PUBLIC "-//W3C//DTD SVG 1.1//EN"
 "http://www.w3.org/Graphics/SVG/1.1/DTD/svg11.dtd">
<!-- Generated by graphviz version 2.36.0 (20140111.2315)
 -->
<!-- Title: metro_lib Pages: 1 -->
<svg width="481pt" height="684pt"
 viewBox="72.00 72.00 409.00 612.00" xmlns="http://www.w3.org/2000/svg" xmlns:xlink="http://www.w3.org/1999/xlink">
<g id="graph0" class="graph" transform="scale(1 1) rotate(0) translate(76 608)">
<title>metro_lib</title>
<polygon fill="white" stroke="none" points="-4,4 -4,-536 333,-536 333,4 -4,4"/>
<text text-anchor="start" x="8" y="-18" font-family="Courier,monospace" font-size="10.00" fill="#8b8989">Reference Diagram for the London Underground Example</text>
<text text-anchor="start" x="8" y="-7" font-family="Courier,monospace" font-size="10.00" fill="#8b8989">Generated on 2014/03/08, 03:08</text>
<g id="clust1" class="cluster"><title>cluster_library_metro_lib</title>
<g id="a_clust1"><a xlink:title="/Users/sergioc/Documents/workspaces/heal/jpc_examples/src/main/resources/org/jpc/examples/metro/">
<path fill="#eee9e9" stroke="#8b8989" d="M47.5,-38C47.5,-38 281.5,-38 281.5,-38 287.5,-38 293.5,-44 293.5,-50 293.5,-50 293.5,-512 293.5,-512 293.5,-518 287.5,-524 281.5,-524 281.5,-524 47.5,-524 47.5,-524 41.5,-524 35.5,-518 35.5,-512 35.5,-512 35.5,-50 35.5,-50 35.5,-44 41.5,-38 47.5,-38"/>
<text text-anchor="middle" x="71" y="-45" font-family="Courier,monospace" font-size="10.00" fill="#8b8989">metro_lib</text>
</a>
</g>
</g>
<g id="clust3" class="cluster"><title>cluster_file_/Users/sergioc/Documents/workspaces/heal/jpc_examples/src/main/resources/org/jpc/examples/metro/metro.lgt</title>
<g id="a_clust3"><a xlink:title="/Users/sergioc/Documents/workspaces/heal/jpc_examples/src/main/resources/org/jpc/examples/metro/metro.lgt">
<path fill="snow" stroke="#8b8989" d="M117.5,-267C117.5,-267 193.5,-267 193.5,-267 199.5,-267 205.5,-273 205.5,-279 205.5,-279 205.5,-366 205.5,-366 205.5,-372 199.5,-378 193.5,-378 193.5,-378 117.5,-378 117.5,-378 111.5,-378 105.5,-372 105.5,-366 105.5,-366 105.5,-279 105.5,-279 105.5,-273 111.5,-267 117.5,-267"/>
<text text-anchor="middle" x="141" y="-274" font-family="Courier,monospace" font-size="10.00" fill="#8b8989">metro.lgt</text>
</a>
</g>
</g>
<g id="clust4" class="cluster"><title>cluster_file_/Users/sergioc/Documents/workspaces/heal/jpc_examples/src/main/resources/org/jpc/examples/metro/station.lgt</title>
<g id="a_clust4"><a xlink:title="/Users/sergioc/Documents/workspaces/heal/jpc_examples/src/main/resources/org/jpc/examples/metro/station.lgt">
<path fill="snow" stroke="#8b8989" d="M189.5,-67C189.5,-67 271.5,-67 271.5,-67 277.5,-67 283.5,-73 283.5,-79 283.5,-79 283.5,-174 283.5,-174 283.5,-180 277.5,-186 271.5,-186 271.5,-186 189.5,-186 189.5,-186 183.5,-186 177.5,-180 177.5,-174 177.5,-174 177.5,-79 177.5,-79 177.5,-73 183.5,-67 189.5,-67"/>
<text text-anchor="middle" x="219" y="-74" font-family="Courier,monospace" font-size="10.00" fill="#8b8989">station.lgt</text>
</a>
</g>
</g>
<g id="clust5" class="cluster"><title>cluster_file_/Users/sergioc/Documents/workspaces/heal/jpc_examples/src/main/resources/org/jpc/examples/metro/line.lgt</title>
<g id="a_clust5"><a xlink:title="/Users/sergioc/Documents/workspaces/heal/jpc_examples/src/main/resources/org/jpc/examples/metro/line.lgt">
<path fill="snow" stroke="#8b8989" d="M57.5,-80C57.5,-80 155.5,-80 155.5,-80 161.5,-80 167.5,-86 167.5,-92 167.5,-92 167.5,-161 167.5,-161 167.5,-167 161.5,-173 155.5,-173 155.5,-173 57.5,-173 57.5,-173 51.5,-173 45.5,-167 45.5,-161 45.5,-161 45.5,-92 45.5,-92 45.5,-86 51.5,-80 57.5,-80"/>
<text text-anchor="middle" x="78" y="-87" font-family="Courier,monospace" font-size="10.00" fill="#8b8989">line.lgt</text>
</a>
</g>
</g>
<g id="clust8" class="cluster"><title>cluster_other</title>
<g id="a_clust8"><a xlink:title="(external entities)">
<path fill="white" stroke="#8b8989" d="M102.5,-439C102.5,-439 209.5,-439 209.5,-439 215.5,-439 221.5,-445 221.5,-451 221.5,-451 221.5,-502 221.5,-502 221.5,-508 215.5,-514 209.5,-514 209.5,-514 102.5,-514 102.5,-514 96.5,-514 90.5,-508 90.5,-502 90.5,-502 90.5,-451 90.5,-451 90.5,-445 96.5,-439 102.5,-439"/>
<text text-anchor="middle" x="156" y="-446" font-family="Courier,monospace" font-size="10.00" fill="#8b8989">(external entities)</text>
</a>
</g>
</g>
<!-- metro -->
<g id="node1" class="node"><title>metro</title>
<g id="a_node1"><a xlink:title="prototype">
<polygon fill="beige" stroke="black" points="195.5,-367.5 115.5,-367.5 115.5,-296.5 195.5,-296.5 195.5,-367.5"/>
<text text-anchor="start" x="142" y="-357.3" font-family="Courier,monospace" font-weight="bold" font-size="9.00">metro</text>
<text text-anchor="start" x="152.5" y="-348.3" font-family="Courier,monospace" font-size="9.00"> </text>
<text text-anchor="start" x="126.5" y="-339.3" font-family="Courier,monospace" font-size="9.00">connected/3</text>
<text text-anchor="start" x="134" y="-330.3" font-family="Courier,monospace" font-size="9.00">nearby/2</text>
<text text-anchor="start" x="126.5" y="-321.3" font-family="Courier,monospace" font-size="9.00">reachable/3</text>
<text text-anchor="start" x="139.5" y="-312.3" font-family="Courier,monospace" font-size="9.00">line/1</text>
<text text-anchor="start" x="123.5" y="-303.3" font-family="Courier,monospace" font-size="9.00">remove_all/0</text>
</a>
</g>
</g>
<!-- list -->
<g id="node4" class="node"><title>list</title>
<g id="a_node4"><a xlink:title="prototype">
<polygon fill="beige" stroke="black" stroke-dasharray="5,2" points="182.5,-504 128.5,-504 128.5,-468 182.5,-468 182.5,-504"/>
<text text-anchor="start" x="144.5" y="-484.8" font-family="Courier,monospace" font-weight="bold" font-size="9.00">list</text>
</a>
</g>
</g>
<!-- metro&#45;&gt;list -->
<g id="edge1" class="edge"><title>metro&#45;&gt;list</title>
<g id="a_edge1"><a xlink:title="calls">
<path fill="none" stroke="black" d="M155.5,-367.872C155.5,-394.321 155.5,-430.28 155.5,-455.351"/>
<polygon fill="black" stroke="black" points="155.5,-455.695 159.5,-461.696 155.5,-467.695 155.5,-455.695"/>
</a>
</g>
<text text-anchor="start" x="155.5" y="-415.8" font-family="Courier,monospace" font-size="9.00">member/2</text>
</g>
<!-- station(Name) -->
<g id="node2" class="node"><title>station(Name)</title>
<g id="a_node2"><a xlink:title="prototype">
<polygon fill="beige" stroke="black" points="273,-176 188,-176 188,-96 273,-96 273,-176"/>
<text text-anchor="start" x="196" y="-165.8" font-family="Courier,monospace" font-weight="bold" font-size="9.00">station(Name)</text>
<text text-anchor="start" x="227.5" y="-156.8" font-family="Courier,monospace" font-size="9.00"> </text>
<text text-anchor="start" x="214.5" y="-147.8" font-family="Courier,monospace" font-size="9.00">name/1</text>
<text text-anchor="start" x="201.5" y="-138.8" font-family="Courier,monospace" font-size="9.00">connected/1</text>
<text text-anchor="start" x="201.5" y="-129.8" font-family="Courier,monospace" font-size="9.00">connected/2</text>
<text text-anchor="start" x="209" y="-120.8" font-family="Courier,monospace" font-size="9.00">nearby/1</text>
<text text-anchor="start" x="201.5" y="-111.8" font-family="Courier,monospace" font-size="9.00">reachable/1</text>
<text text-anchor="start" x="201.5" y="-102.8" font-family="Courier,monospace" font-size="9.00">reachable/2</text>
</a>
</g>
</g>
<!-- station(Name)&#45;&gt;metro -->
<g id="edge2" class="edge"><title>station(Name)&#45;&gt;metro</title>
<g id="a_edge2"><a xlink:title="calls">
<path fill="none" stroke="black" d="M219.145,-176.226C212.379,-198.42 203.23,-226.542 193.5,-251 188.981,-262.358 183.604,-274.377 178.338,-285.551"/>
<polygon fill="black" stroke="black" points="178.331,-285.566 179.345,-292.705 173.145,-296.387 178.331,-285.566"/>
</a>
</g>
<text text-anchor="start" x="203.5" y="-243.8" font-family="Courier,monospace" font-size="9.00">connected/3</text>
<text text-anchor="start" x="211" y="-233.8" font-family="Courier,monospace" font-size="9.00">nearby/2</text>
<text text-anchor="start" x="203.5" y="-223.8" font-family="Courier,monospace" font-size="9.00">reachable/3</text>
</g>
<!-- line(Name) -->
<g id="node3" class="node"><title>line(Name)</title>
<g id="a_node3"><a xlink:title="prototype">
<polygon fill="beige" stroke="black" points="157,-162.5 56,-162.5 56,-109.5 157,-109.5 157,-162.5"/>
<text text-anchor="start" x="80" y="-152.3" font-family="Courier,monospace" font-weight="bold" font-size="9.00">line(Name)</text>
<text text-anchor="start" x="103.5" y="-143.3" font-family="Courier,monospace" font-size="9.00"> </text>
<text text-anchor="start" x="90.5" y="-134.3" font-family="Courier,monospace" font-size="9.00">name/1</text>
<text text-anchor="start" x="80" y="-125.3" font-family="Courier,monospace" font-size="9.00">connects/2</text>
<text text-anchor="start" x="64" y="-116.3" font-family="Courier,monospace" font-size="9.00">add_connection/2</text>
</a>
</g>
</g>
<!-- line(Name)&#45;&gt;metro -->
<g id="edge3" class="edge"><title>line(Name)&#45;&gt;metro</title>
<g id="a_edge3"><a xlink:title="calls">
<path fill="none" stroke="black" d="M113.007,-162.762C120.829,-193.732 134.106,-246.296 143.74,-284.441"/>
<polygon fill="black" stroke="black" points="143.79,-284.639 149.138,-289.477 146.729,-296.274 143.79,-284.639"/>
</a>
</g>
<text text-anchor="start" x="134.5" y="-233.8" font-family="Courier,monospace" font-size="9.00">connected/3</text>
</g>
</g>
</svg>
