<?xml version="1.0" encoding="UTF-8" standalone="no"?>
<!DOCTYPE svg PUBLIC "-//W3C//DTD SVG 1.1//EN"
 "http://www.w3.org/Graphics/SVG/1.1/DTD/svg11.dtd">
<!-- Generated by graphviz version 2.36.0 (20140111.2315)
 -->
<!-- Title: metro_lib Pages: 1 -->
<svg width="451pt" height="573pt"
 viewBox="72.00 72.00 379.00 501.00" xmlns="http://www.w3.org/2000/svg" xmlns:xlink="http://www.w3.org/1999/xlink">
<g id="graph0" class="graph" transform="scale(1 1) rotate(0) translate(76 497)">
<title>metro_lib</title>
<polygon fill="white" stroke="none" points="-4,4 -4,-425 303,-425 303,4 -4,4"/>
<text text-anchor="start" x="8" y="-7" font-family="Courier,monospace" font-size="10.00" fill="#8b8989">Uses Diagram for the London Underground Example</text>
<g id="clust1" class="cluster"><title>cluster_library_metro_lib</title>
<g id="a_clust1"><a xlink:title="/Users/sergioc/Documents/workspaces/heal/jpc_examples/src/main/resources/org/jpc/examples/metro/">
<path fill="#eee9e9" stroke="#8b8989" d="M48.5,-27C48.5,-27 250.5,-27 250.5,-27 256.5,-27 262.5,-33 262.5,-39 262.5,-39 262.5,-401 262.5,-401 262.5,-407 256.5,-413 250.5,-413 250.5,-413 48.5,-413 48.5,-413 42.5,-413 36.5,-407 36.5,-401 36.5,-401 36.5,-39 36.5,-39 36.5,-33 42.5,-27 48.5,-27"/>
<text text-anchor="middle" x="72" y="-34" font-family="Courier,monospace" font-size="10.00" fill="#8b8989">metro_lib</text>
</a>
</g>
</g>
<g id="clust3" class="cluster"><title>cluster_file_/Users/sergioc/Documents/workspaces/heal/jpc_examples/src/main/resources/org/jpc/examples/metro/metro.lgt</title>
<g id="a_clust3"><a xlink:title="/Users/sergioc/Documents/workspaces/heal/jpc_examples/src/main/resources/org/jpc/examples/metro/metro.lgt">
<path fill="snow" stroke="#8b8989" d="M104.5,-192C104.5,-192 154.5,-192 154.5,-192 160.5,-192 166.5,-198 166.5,-204 166.5,-204 166.5,-255 166.5,-255 166.5,-261 160.5,-267 154.5,-267 154.5,-267 104.5,-267 104.5,-267 98.5,-267 92.5,-261 92.5,-255 92.5,-255 92.5,-204 92.5,-204 92.5,-198 98.5,-192 104.5,-192"/>
<text text-anchor="middle" x="128" y="-199" font-family="Courier,monospace" font-size="10.00" fill="#8b8989">metro.lgt</text>
</a>
</g>
</g>
<g id="clust4" class="cluster"><title>cluster_file_/Users/sergioc/Documents/workspaces/heal/jpc_examples/src/main/resources/org/jpc/examples/metro/station.lgt</title>
<g id="a_clust4"><a xlink:title="/Users/sergioc/Documents/workspaces/heal/jpc_examples/src/main/resources/org/jpc/examples/metro/station.lgt">
<path fill="snow" stroke="#8b8989" d="M158.5,-56C158.5,-56 240.5,-56 240.5,-56 246.5,-56 252.5,-62 252.5,-68 252.5,-68 252.5,-119 252.5,-119 252.5,-125 246.5,-131 240.5,-131 240.5,-131 158.5,-131 158.5,-131 152.5,-131 146.5,-125 146.5,-119 146.5,-119 146.5,-68 146.5,-68 146.5,-62 152.5,-56 158.5,-56"/>
<text text-anchor="middle" x="188" y="-63" font-family="Courier,monospace" font-size="10.00" fill="#8b8989">station.lgt</text>
</a>
</g>
</g>
<g id="clust5" class="cluster"><title>cluster_file_/Users/sergioc/Documents/workspaces/heal/jpc_examples/src/main/resources/org/jpc/examples/metro/line.lgt</title>
<g id="a_clust5"><a xlink:title="/Users/sergioc/Documents/workspaces/heal/jpc_examples/src/main/resources/org/jpc/examples/metro/line.lgt">
<path fill="snow" stroke="#8b8989" d="M58.5,-56C58.5,-56 124.5,-56 124.5,-56 130.5,-56 136.5,-62 136.5,-68 136.5,-68 136.5,-119 136.5,-119 136.5,-125 130.5,-131 124.5,-131 124.5,-131 58.5,-131 58.5,-131 52.5,-131 46.5,-125 46.5,-119 46.5,-119 46.5,-68 46.5,-68 46.5,-62 52.5,-56 58.5,-56"/>
<text text-anchor="middle" x="79" y="-63" font-family="Courier,monospace" font-size="10.00" fill="#8b8989">line.lgt</text>
</a>
</g>
</g>
<g id="clust8" class="cluster"><title>cluster_other</title>
<g id="a_clust8"><a xlink:title="(external entities)">
<path fill="white" stroke="#8b8989" d="M81.5,-328C81.5,-328 188.5,-328 188.5,-328 194.5,-328 200.5,-334 200.5,-340 200.5,-340 200.5,-391 200.5,-391 200.5,-397 194.5,-403 188.5,-403 188.5,-403 81.5,-403 81.5,-403 75.5,-403 69.5,-397 69.5,-391 69.5,-391 69.5,-340 69.5,-340 69.5,-334 75.5,-328 81.5,-328"/>
<text text-anchor="middle" x="135" y="-335" font-family="Courier,monospace" font-size="10.00" fill="#8b8989">(external entities)</text>
</a>
</g>
</g>
<!-- metro -->
<g id="node1" class="node"><title>metro</title>
<g id="a_node1"><a xlink:title="prototype">
<polygon fill="beige" stroke="black" points="156.5,-257 102.5,-257 102.5,-221 156.5,-221 156.5,-257"/>
<text text-anchor="start" x="116" y="-237.8" font-family="Courier,monospace" font-weight="bold" font-size="9.00">metro</text>
</a>
</g>
</g>
<!-- list -->
<g id="node4" class="node"><title>list</title>
<g id="a_node4"><a xlink:title="prototype">
<polygon fill="beige" stroke="black" stroke-dasharray="5,2" points="156.5,-393 102.5,-393 102.5,-357 156.5,-357 156.5,-393"/>
<text text-anchor="start" x="118.5" y="-373.8" font-family="Courier,monospace" font-weight="bold" font-size="9.00">list</text>
</a>
</g>
</g>
<!-- metro&#45;&gt;list -->
<g id="edge1" class="edge"><title>metro&#45;&gt;list</title>
<g id="a_edge1"><a xlink:title="uses">
<path fill="none" stroke="black" d="M129.5,-257.244C129.5,-279.355 129.5,-318.03 129.5,-344.776"/>
<polygon fill="black" stroke="black" points="129.5,-344.822 133.5,-350.822 129.5,-356.822 129.5,-344.822"/>
</a>
</g>
<text text-anchor="start" x="129.5" y="-304.8" font-family="Courier,monospace" font-size="9.00">uses</text>
</g>
<!-- station(Name) -->
<g id="node2" class="node"><title>station(Name)</title>
<g id="a_node2"><a xlink:title="prototype">
<polygon fill="beige" stroke="black" points="242,-121 157,-121 157,-85 242,-85 242,-121"/>
<text text-anchor="start" x="165" y="-101.8" font-family="Courier,monospace" font-weight="bold" font-size="9.00">station(Name)</text>
</a>
</g>
</g>
<!-- station(Name)&#45;&gt;metro -->
<g id="edge2" class="edge"><title>station(Name)&#45;&gt;metro</title>
<g id="a_edge2"><a xlink:title="uses">
<path fill="none" stroke="black" d="M190.492,-121.244C178.784,-143.657 158.185,-183.088 144.198,-209.863"/>
<polygon fill="black" stroke="black" points="144.03,-210.186 144.797,-217.356 138.473,-220.822 144.03,-210.186"/>
</a>
</g>
<text text-anchor="start" x="166.5" y="-168.8" font-family="Courier,monospace" font-size="9.00">uses</text>
</g>
<!-- line(Name) -->
<g id="node3" class="node"><title>line(Name)</title>
<g id="a_node3"><a xlink:title="prototype">
<polygon fill="beige" stroke="black" points="126,-121 57,-121 57,-85 126,-85 126,-121"/>
<text text-anchor="start" x="65" y="-101.8" font-family="Courier,monospace" font-weight="bold" font-size="9.00">line(Name)</text>
</a>
</g>
</g>
<!-- line(Name)&#45;&gt;metro -->
<g id="edge3" class="edge"><title>line(Name)&#45;&gt;metro</title>
<g id="a_edge3"><a xlink:title="uses">
<path fill="none" stroke="black" d="M96.39,-121.244C102.689,-143.456 113.728,-182.382 121.316,-209.14"/>
<polygon fill="black" stroke="black" points="121.355,-209.278 126.84,-213.959 124.629,-220.822 121.355,-209.278"/>
</a>
</g>
<text text-anchor="start" x="111.5" y="-168.8" font-family="Courier,monospace" font-size="9.00">uses</text>
</g>
</g>
</svg>
