<?xml version="1.0" encoding="UTF-8" standalone="no"?>
<!DOCTYPE svg PUBLIC "-//W3C//DTD SVG 1.1//EN"
 "http://www.w3.org/Graphics/SVG/1.1/DTD/svg11.dtd">
<!-- Generated by graphviz version 2.36.0 (20140111.2315)
 -->
<!-- Title: metro_lib Pages: 1 -->
<svg width="475pt" height="664pt"
 viewBox="72.00 72.00 403.00 592.00" xmlns="http://www.w3.org/2000/svg" xmlns:xlink="http://www.w3.org/1999/xlink">
<g id="graph0" class="graph" transform="scale(1 1) rotate(0) translate(76 588)">
<title>metro_lib</title>
<polygon fill="white" stroke="none" points="-4,4 -4,-516 327,-516 327,4 -4,4"/>
<text text-anchor="start" x="8" y="-18" font-family="Courier,monospace" font-size="10.00" fill="#8b8989">Entities Diagram for the London Underground Example</text>
<text text-anchor="start" x="8" y="-7" font-family="Courier,monospace" font-size="10.00" fill="#8b8989">Generated on 2014/03/08, 03:08</text>
<g id="clust1" class="cluster"><title>cluster_library_metro_lib</title>
<g id="a_clust1"><a xlink:title="/Users/sergioc/Documents/workspaces/heal/jpc_examples/src/main/resources/org/jpc/examples/metro/">
<path fill="#eee9e9" stroke="#8b8989" d="M44.5,-38C44.5,-38 278.5,-38 278.5,-38 284.5,-38 290.5,-44 290.5,-50 290.5,-50 290.5,-492 290.5,-492 290.5,-498 284.5,-504 278.5,-504 278.5,-504 44.5,-504 44.5,-504 38.5,-504 32.5,-498 32.5,-492 32.5,-492 32.5,-50 32.5,-50 32.5,-44 38.5,-38 44.5,-38"/>
<text text-anchor="middle" x="68" y="-45" font-family="Courier,monospace" font-size="10.00" fill="#8b8989">metro_lib</text>
</a>
</g>
</g>
<g id="clust3" class="cluster"><title>cluster_file_/Users/sergioc/Documents/workspaces/heal/jpc_examples/src/main/resources/org/jpc/examples/metro/metro.lgt</title>
<g id="a_clust3"><a xlink:title="/Users/sergioc/Documents/workspaces/heal/jpc_examples/src/main/resources/org/jpc/examples/metro/metro.lgt">
<path fill="snow" stroke="#8b8989" d="M107.5,-247C107.5,-247 183.5,-247 183.5,-247 189.5,-247 195.5,-253 195.5,-259 195.5,-259 195.5,-346 195.5,-346 195.5,-352 189.5,-358 183.5,-358 183.5,-358 107.5,-358 107.5,-358 101.5,-358 95.5,-352 95.5,-346 95.5,-346 95.5,-259 95.5,-259 95.5,-253 101.5,-247 107.5,-247"/>
<text text-anchor="middle" x="131" y="-254" font-family="Courier,monospace" font-size="10.00" fill="#8b8989">metro.lgt</text>
</a>
</g>
</g>
<g id="clust4" class="cluster"><title>cluster_file_/Users/sergioc/Documents/workspaces/heal/jpc_examples/src/main/resources/org/jpc/examples/metro/station.lgt</title>
<g id="a_clust4"><a xlink:title="/Users/sergioc/Documents/workspaces/heal/jpc_examples/src/main/resources/org/jpc/examples/metro/station.lgt">
<path fill="snow" stroke="#8b8989" d="M186.5,-67C186.5,-67 268.5,-67 268.5,-67 274.5,-67 280.5,-73 280.5,-79 280.5,-79 280.5,-174 280.5,-174 280.5,-180 274.5,-186 268.5,-186 268.5,-186 186.5,-186 186.5,-186 180.5,-186 174.5,-180 174.5,-174 174.5,-174 174.5,-79 174.5,-79 174.5,-73 180.5,-67 186.5,-67"/>
<text text-anchor="middle" x="216" y="-74" font-family="Courier,monospace" font-size="10.00" fill="#8b8989">station.lgt</text>
</a>
</g>
</g>
<g id="clust5" class="cluster"><title>cluster_file_/Users/sergioc/Documents/workspaces/heal/jpc_examples/src/main/resources/org/jpc/examples/metro/line.lgt</title>
<g id="a_clust5"><a xlink:title="/Users/sergioc/Documents/workspaces/heal/jpc_examples/src/main/resources/org/jpc/examples/metro/line.lgt">
<path fill="snow" stroke="#8b8989" d="M54.5,-80C54.5,-80 152.5,-80 152.5,-80 158.5,-80 164.5,-86 164.5,-92 164.5,-92 164.5,-161 164.5,-161 164.5,-167 158.5,-173 152.5,-173 152.5,-173 54.5,-173 54.5,-173 48.5,-173 42.5,-167 42.5,-161 42.5,-161 42.5,-92 42.5,-92 42.5,-86 48.5,-80 54.5,-80"/>
<text text-anchor="middle" x="75" y="-87" font-family="Courier,monospace" font-size="10.00" fill="#8b8989">line.lgt</text>
</a>
</g>
</g>
<g id="clust8" class="cluster"><title>cluster_other</title>
<g id="a_clust8"><a xlink:title="(external entities)">
<path fill="white" stroke="#8b8989" d="M92.5,-419C92.5,-419 199.5,-419 199.5,-419 205.5,-419 211.5,-425 211.5,-431 211.5,-431 211.5,-482 211.5,-482 211.5,-488 205.5,-494 199.5,-494 199.5,-494 92.5,-494 92.5,-494 86.5,-494 80.5,-488 80.5,-482 80.5,-482 80.5,-431 80.5,-431 80.5,-425 86.5,-419 92.5,-419"/>
<text text-anchor="middle" x="146" y="-426" font-family="Courier,monospace" font-size="10.00" fill="#8b8989">(external entities)</text>
</a>
</g>
</g>
<!-- metro -->
<g id="node1" class="node"><title>metro</title>
<g id="a_node1"><a xlink:title="prototype">
<polygon fill="beige" stroke="black" points="185.5,-347.5 105.5,-347.5 105.5,-276.5 185.5,-276.5 185.5,-347.5"/>
<text text-anchor="start" x="132" y="-337.3" font-family="Courier,monospace" font-weight="bold" font-size="9.00">metro</text>
<text text-anchor="start" x="142.5" y="-328.3" font-family="Courier,monospace" font-size="9.00"> </text>
<text text-anchor="start" x="116.5" y="-319.3" font-family="Courier,monospace" font-size="9.00">connected/3</text>
<text text-anchor="start" x="124" y="-310.3" font-family="Courier,monospace" font-size="9.00">nearby/2</text>
<text text-anchor="start" x="116.5" y="-301.3" font-family="Courier,monospace" font-size="9.00">reachable/3</text>
<text text-anchor="start" x="129.5" y="-292.3" font-family="Courier,monospace" font-size="9.00">line/1</text>
<text text-anchor="start" x="113.5" y="-283.3" font-family="Courier,monospace" font-size="9.00">remove_all/0</text>
</a>
</g>
</g>
<!-- list -->
<g id="node4" class="node"><title>list</title>
<g id="a_node4"><a xlink:title="prototype">
<polygon fill="beige" stroke="black" stroke-dasharray="5,2" points="172.5,-484 118.5,-484 118.5,-448 172.5,-448 172.5,-484"/>
<text text-anchor="start" x="134.5" y="-464.8" font-family="Courier,monospace" font-weight="bold" font-size="9.00">list</text>
</a>
</g>
</g>
<!-- metro&#45;&gt;list -->
<g id="edge1" class="edge"><title>metro&#45;&gt;list</title>
<g id="a_edge1"><a xlink:title="uses">
<path fill="none" stroke="black" d="M145.5,-347.872C145.5,-374.321 145.5,-410.28 145.5,-435.351"/>
<polygon fill="black" stroke="black" points="145.5,-435.695 149.5,-441.696 145.5,-447.695 145.5,-435.695"/>
</a>
</g>
<text text-anchor="start" x="145.5" y="-395.8" font-family="Courier,monospace" font-size="9.00">uses</text>
</g>
<!-- station(Name) -->
<g id="node2" class="node"><title>station(Name)</title>
<g id="a_node2"><a xlink:title="prototype">
<polygon fill="beige" stroke="black" points="270,-176 185,-176 185,-96 270,-96 270,-176"/>
<text text-anchor="start" x="193" y="-165.8" font-family="Courier,monospace" font-weight="bold" font-size="9.00">station(Name)</text>
<text text-anchor="start" x="224.5" y="-156.8" font-family="Courier,monospace" font-size="9.00"> </text>
<text text-anchor="start" x="211.5" y="-147.8" font-family="Courier,monospace" font-size="9.00">name/1</text>
<text text-anchor="start" x="198.5" y="-138.8" font-family="Courier,monospace" font-size="9.00">connected/1</text>
<text text-anchor="start" x="198.5" y="-129.8" font-family="Courier,monospace" font-size="9.00">connected/2</text>
<text text-anchor="start" x="206" y="-120.8" font-family="Courier,monospace" font-size="9.00">nearby/1</text>
<text text-anchor="start" x="198.5" y="-111.8" font-family="Courier,monospace" font-size="9.00">reachable/1</text>
<text text-anchor="start" x="198.5" y="-102.8" font-family="Courier,monospace" font-size="9.00">reachable/2</text>
</a>
</g>
</g>
<!-- station(Name)&#45;&gt;metro -->
<g id="edge2" class="edge"><title>station(Name)&#45;&gt;metro</title>
<g id="a_edge2"><a xlink:title="uses">
<path fill="none" stroke="black" d="M209.098,-176.049C196.606,-202.556 180.044,-237.7 166.953,-265.478"/>
<polygon fill="black" stroke="black" points="166.875,-265.644 167.935,-272.777 161.759,-276.499 166.875,-265.644"/>
</a>
</g>
<text text-anchor="start" x="186.5" y="-223.8" font-family="Courier,monospace" font-size="9.00">uses</text>
</g>
<!-- line(Name) -->
<g id="node3" class="node"><title>line(Name)</title>
<g id="a_node3"><a xlink:title="prototype">
<polygon fill="beige" stroke="black" points="154,-162.5 53,-162.5 53,-109.5 154,-109.5 154,-162.5"/>
<text text-anchor="start" x="77" y="-152.3" font-family="Courier,monospace" font-weight="bold" font-size="9.00">line(Name)</text>
<text text-anchor="start" x="100.5" y="-143.3" font-family="Courier,monospace" font-size="9.00"> </text>
<text text-anchor="start" x="87.5" y="-134.3" font-family="Courier,monospace" font-size="9.00">name/1</text>
<text text-anchor="start" x="77" y="-125.3" font-family="Courier,monospace" font-size="9.00">connects/2</text>
<text text-anchor="start" x="61" y="-116.3" font-family="Courier,monospace" font-size="9.00">add_connection/2</text>
</a>
</g>
</g>
<!-- line(Name)&#45;&gt;metro -->
<g id="edge3" class="edge"><title>line(Name)&#45;&gt;metro</title>
<g id="a_edge3"><a xlink:title="uses">
<path fill="none" stroke="black" d="M109.697,-162.674C116.131,-189.33 126.338,-231.614 134.21,-264.227"/>
<polygon fill="black" stroke="black" points="134.284,-264.535 139.58,-269.429 137.1,-276.2 134.284,-264.535"/>
</a>
</g>
<text text-anchor="start" x="125.5" y="-223.8" font-family="Courier,monospace" font-size="9.00">uses</text>
</g>
</g>
</svg>
