<?xml version="1.0" encoding="UTF-8" standalone="no"?>
<!DOCTYPE svg PUBLIC "-//W3C//DTD SVG 1.1//EN"
 "http://www.w3.org/Graphics/SVG/1.1/DTD/svg11.dtd">
<!-- Generated by graphviz version 2.36.0 (20140111.2315)
 -->
<!-- Title: metro_lib Pages: 1 -->
<svg width="481pt" height="673pt"
 viewBox="72.00 72.00 409.00 601.00" xmlns="http://www.w3.org/2000/svg" xmlns:xlink="http://www.w3.org/1999/xlink">
<g id="graph0" class="graph" transform="scale(1 1) rotate(0) translate(76 597)">
<title>metro_lib</title>
<polygon fill="white" stroke="none" points="-4,4 -4,-525 333,-525 333,4 -4,4"/>
<text text-anchor="start" x="8" y="-7" font-family="Courier,monospace" font-size="10.00" fill="#8b8989">Reference Diagram for the London Underground Example</text>
<g id="clust1" class="cluster"><title>cluster_library_metro_lib</title>
<g id="a_clust1"><a xlink:title="/Users/sergioc/Documents/workspaces/heal/jpc_examples/src/main/resources/org/jpc/examples/metro/">
<path fill="#eee9e9" stroke="#8b8989" d="M47.5,-27C47.5,-27 281.5,-27 281.5,-27 287.5,-27 293.5,-33 293.5,-39 293.5,-39 293.5,-501 293.5,-501 293.5,-507 287.5,-513 281.5,-513 281.5,-513 47.5,-513 47.5,-513 41.5,-513 35.5,-507 35.5,-501 35.5,-501 35.5,-39 35.5,-39 35.5,-33 41.5,-27 47.5,-27"/>
<text text-anchor="middle" x="71" y="-34" font-family="Courier,monospace" font-size="10.00" fill="#8b8989">metro_lib</text>
</a>
</g>
</g>
<g id="clust4" class="cluster"><title>cluster_file_/Users/sergioc/Documents/workspaces/heal/jpc_examples/src/main/resources/org/jpc/examples/metro/station.lgt</title>
<g id="a_clust4"><a xlink:title="/Users/sergioc/Documents/workspaces/heal/jpc_examples/src/main/resources/org/jpc/examples/metro/station.lgt">
<path fill="snow" stroke="#8b8989" d="M189.5,-56C189.5,-56 271.5,-56 271.5,-56 277.5,-56 283.5,-62 283.5,-68 283.5,-68 283.5,-163 283.5,-163 283.5,-169 277.5,-175 271.5,-175 271.5,-175 189.5,-175 189.5,-175 183.5,-175 177.5,-169 177.5,-163 177.5,-163 177.5,-68 177.5,-68 177.5,-62 183.5,-56 189.5,-56"/>
<text text-anchor="middle" x="219" y="-63" font-family="Courier,monospace" font-size="10.00" fill="#8b8989">station.lgt</text>
</a>
</g>
</g>
<g id="clust5" class="cluster"><title>cluster_file_/Users/sergioc/Documents/workspaces/heal/jpc_examples/src/main/resources/org/jpc/examples/metro/line.lgt</title>
<g id="a_clust5"><a xlink:title="/Users/sergioc/Documents/workspaces/heal/jpc_examples/src/main/resources/org/jpc/examples/metro/line.lgt">
<path fill="snow" stroke="#8b8989" d="M57.5,-69C57.5,-69 155.5,-69 155.5,-69 161.5,-69 167.5,-75 167.5,-81 167.5,-81 167.5,-150 167.5,-150 167.5,-156 161.5,-162 155.5,-162 155.5,-162 57.5,-162 57.5,-162 51.5,-162 45.5,-156 45.5,-150 45.5,-150 45.5,-81 45.5,-81 45.5,-75 51.5,-69 57.5,-69"/>
<text text-anchor="middle" x="78" y="-76" font-family="Courier,monospace" font-size="10.00" fill="#8b8989">line.lgt</text>
</a>
</g>
</g>
<g id="clust8" class="cluster"><title>cluster_other</title>
<g id="a_clust8"><a xlink:title="(external entities)">
<path fill="white" stroke="#8b8989" d="M102.5,-428C102.5,-428 209.5,-428 209.5,-428 215.5,-428 221.5,-434 221.5,-440 221.5,-440 221.5,-491 221.5,-491 221.5,-497 215.5,-503 209.5,-503 209.5,-503 102.5,-503 102.5,-503 96.5,-503 90.5,-497 90.5,-491 90.5,-491 90.5,-440 90.5,-440 90.5,-434 96.5,-428 102.5,-428"/>
<text text-anchor="middle" x="156" y="-435" font-family="Courier,monospace" font-size="10.00" fill="#8b8989">(external entities)</text>
</a>
</g>
</g>
<g id="clust3" class="cluster"><title>cluster_file_/Users/sergioc/Documents/workspaces/heal/jpc_examples/src/main/resources/org/jpc/examples/metro/metro.lgt</title>
<g id="a_clust3"><a xlink:title="/Users/sergioc/Documents/workspaces/heal/jpc_examples/src/main/resources/org/jpc/examples/metro/metro.lgt">
<path fill="snow" stroke="#8b8989" d="M117.5,-256C117.5,-256 193.5,-256 193.5,-256 199.5,-256 205.5,-262 205.5,-268 205.5,-268 205.5,-355 205.5,-355 205.5,-361 199.5,-367 193.5,-367 193.5,-367 117.5,-367 117.5,-367 111.5,-367 105.5,-361 105.5,-355 105.5,-355 105.5,-268 105.5,-268 105.5,-262 111.5,-256 117.5,-256"/>
<text text-anchor="middle" x="141" y="-263" font-family="Courier,monospace" font-size="10.00" fill="#8b8989">metro.lgt</text>
</a>
</g>
</g>
<!-- metro -->
<g id="node1" class="node"><title>metro</title>
<g id="a_node1"><a xlink:title="prototype">
<polygon fill="beige" stroke="black" points="195.5,-356.5 115.5,-356.5 115.5,-285.5 195.5,-285.5 195.5,-356.5"/>
<text text-anchor="start" x="142" y="-346.3" font-family="Courier,monospace" font-weight="bold" font-size="9.00">metro</text>
<text text-anchor="start" x="152.5" y="-337.3" font-family="Courier,monospace" font-size="9.00"> </text>
<text text-anchor="start" x="126.5" y="-328.3" font-family="Courier,monospace" font-size="9.00">connected/3</text>
<text text-anchor="start" x="134" y="-319.3" font-family="Courier,monospace" font-size="9.00">nearby/2</text>
<text text-anchor="start" x="126.5" y="-310.3" font-family="Courier,monospace" font-size="9.00">reachable/3</text>
<text text-anchor="start" x="139.5" y="-301.3" font-family="Courier,monospace" font-size="9.00">line/1</text>
<text text-anchor="start" x="123.5" y="-292.3" font-family="Courier,monospace" font-size="9.00">remove_all/0</text>
</a>
</g>
</g>
<!-- list -->
<g id="node4" class="node"><title>list</title>
<g id="a_node4"><a xlink:title="prototype">
<polygon fill="beige" stroke="black" stroke-dasharray="5,2" points="182.5,-493 128.5,-493 128.5,-457 182.5,-457 182.5,-493"/>
<text text-anchor="start" x="144.5" y="-473.8" font-family="Courier,monospace" font-weight="bold" font-size="9.00">list</text>
</a>
</g>
</g>
<!-- metro&#45;&gt;list -->
<g id="edge1" class="edge"><title>metro&#45;&gt;list</title>
<g id="a_edge1"><a xlink:title="calls">
<path fill="none" stroke="black" d="M155.5,-356.872C155.5,-383.321 155.5,-419.28 155.5,-444.351"/>
<polygon fill="black" stroke="black" points="155.5,-444.695 159.5,-450.696 155.5,-456.695 155.5,-444.695"/>
</a>
</g>
<text text-anchor="start" x="155.5" y="-404.8" font-family="Courier,monospace" font-size="9.00">member/2</text>
</g>
<!-- station(Name) -->
<g id="node2" class="node"><title>station(Name)</title>
<g id="a_node2"><a xlink:title="prototype">
<polygon fill="beige" stroke="black" points="273,-165 188,-165 188,-85 273,-85 273,-165"/>
<text text-anchor="start" x="196" y="-154.8" font-family="Courier,monospace" font-weight="bold" font-size="9.00">station(Name)</text>
<text text-anchor="start" x="227.5" y="-145.8" font-family="Courier,monospace" font-size="9.00"> </text>
<text text-anchor="start" x="214.5" y="-136.8" font-family="Courier,monospace" font-size="9.00">name/1</text>
<text text-anchor="start" x="201.5" y="-127.8" font-family="Courier,monospace" font-size="9.00">connected/1</text>
<text text-anchor="start" x="201.5" y="-118.8" font-family="Courier,monospace" font-size="9.00">connected/2</text>
<text text-anchor="start" x="209" y="-109.8" font-family="Courier,monospace" font-size="9.00">nearby/1</text>
<text text-anchor="start" x="201.5" y="-100.8" font-family="Courier,monospace" font-size="9.00">reachable/1</text>
<text text-anchor="start" x="201.5" y="-91.8" font-family="Courier,monospace" font-size="9.00">reachable/2</text>
</a>
</g>
</g>
<!-- station(Name)&#45;&gt;metro -->
<g id="edge2" class="edge"><title>station(Name)&#45;&gt;metro</title>
<g id="a_edge2"><a xlink:title="calls">
<path fill="none" stroke="black" d="M219.145,-165.226C212.379,-187.42 203.23,-215.542 193.5,-240 188.981,-251.358 183.604,-263.377 178.338,-274.551"/>
<polygon fill="black" stroke="black" points="178.331,-274.566 179.345,-281.705 173.145,-285.387 178.331,-274.566"/>
</a>
</g>
<text text-anchor="start" x="203.5" y="-232.8" font-family="Courier,monospace" font-size="9.00">connected/3</text>
<text text-anchor="start" x="211" y="-222.8" font-family="Courier,monospace" font-size="9.00">nearby/2</text>
<text text-anchor="start" x="203.5" y="-212.8" font-family="Courier,monospace" font-size="9.00">reachable/3</text>
</g>
<!-- line(Name) -->
<g id="node3" class="node"><title>line(Name)</title>
<g id="a_node3"><a xlink:title="prototype">
<polygon fill="beige" stroke="black" points="157,-151.5 56,-151.5 56,-98.5 157,-98.5 157,-151.5"/>
<text text-anchor="start" x="80" y="-141.3" font-family="Courier,monospace" font-weight="bold" font-size="9.00">line(Name)</text>
<text text-anchor="start" x="103.5" y="-132.3" font-family="Courier,monospace" font-size="9.00"> </text>
<text text-anchor="start" x="90.5" y="-123.3" font-family="Courier,monospace" font-size="9.00">name/1</text>
<text text-anchor="start" x="80" y="-114.3" font-family="Courier,monospace" font-size="9.00">connects/2</text>
<text text-anchor="start" x="64" y="-105.3" font-family="Courier,monospace" font-size="9.00">add_connection/2</text>
</a>
</g>
</g>
<!-- line(Name)&#45;&gt;metro -->
<g id="edge3" class="edge"><title>line(Name)&#45;&gt;metro</title>
<g id="a_edge3"><a xlink:title="calls">
<path fill="none" stroke="black" d="M113.007,-151.762C120.829,-182.732 134.106,-235.296 143.74,-273.441"/>
<polygon fill="black" stroke="black" points="143.79,-273.639 149.138,-278.477 146.729,-285.274 143.79,-273.639"/>
</a>
</g>
<text text-anchor="start" x="134.5" y="-222.8" font-family="Courier,monospace" font-size="9.00">connected/3</text>
</g>
</g>
</svg>
