<?xml version="1.0" encoding="UTF-8" standalone="no"?>
<!DOCTYPE svg PUBLIC "-//W3C//DTD SVG 1.1//EN"
 "http://www.w3.org/Graphics/SVG/1.1/DTD/svg11.dtd">
<!-- Generated by graphviz version 2.36.0 (20140111.2315)
 -->
<!-- Title: metro_lib Pages: 1 -->
<svg width="451pt" height="584pt"
 viewBox="72.00 72.00 379.00 512.00" xmlns="http://www.w3.org/2000/svg" xmlns:xlink="http://www.w3.org/1999/xlink">
<g id="graph0" class="graph" transform="scale(1 1) rotate(0) translate(76 508)">
<title>metro_lib</title>
<polygon fill="white" stroke="none" points="-4,4 -4,-436 303,-436 303,4 -4,4"/>
<text text-anchor="start" x="8" y="-18" font-family="Courier,monospace" font-size="10.00" fill="#8b8989">Uses Diagram for the London Underground Example</text>
<text text-anchor="start" x="8" y="-7" font-family="Courier,monospace" font-size="10.00" fill="#8b8989">Generated on 2014/03/08, 03:08</text>
<g id="clust1" class="cluster"><title>cluster_library_metro_lib</title>
<g id="a_clust1"><a xlink:title="/Users/sergioc/Documents/workspaces/heal/jpc_examples/src/main/resources/org/jpc/examples/metro/">
<path fill="#eee9e9" stroke="#8b8989" d="M48.5,-38C48.5,-38 250.5,-38 250.5,-38 256.5,-38 262.5,-44 262.5,-50 262.5,-50 262.5,-412 262.5,-412 262.5,-418 256.5,-424 250.5,-424 250.5,-424 48.5,-424 48.5,-424 42.5,-424 36.5,-418 36.5,-412 36.5,-412 36.5,-50 36.5,-50 36.5,-44 42.5,-38 48.5,-38"/>
<text text-anchor="middle" x="72" y="-45" font-family="Courier,monospace" font-size="10.00" fill="#8b8989">metro_lib</text>
</a>
</g>
</g>
<g id="clust3" class="cluster"><title>cluster_file_/Users/sergioc/Documents/workspaces/heal/jpc_examples/src/main/resources/org/jpc/examples/metro/metro.lgt</title>
<g id="a_clust3"><a xlink:title="/Users/sergioc/Documents/workspaces/heal/jpc_examples/src/main/resources/org/jpc/examples/metro/metro.lgt">
<path fill="snow" stroke="#8b8989" d="M104.5,-203C104.5,-203 154.5,-203 154.5,-203 160.5,-203 166.5,-209 166.5,-215 166.5,-215 166.5,-266 166.5,-266 166.5,-272 160.5,-278 154.5,-278 154.5,-278 104.5,-278 104.5,-278 98.5,-278 92.5,-272 92.5,-266 92.5,-266 92.5,-215 92.5,-215 92.5,-209 98.5,-203 104.5,-203"/>
<text text-anchor="middle" x="128" y="-210" font-family="Courier,monospace" font-size="10.00" fill="#8b8989">metro.lgt</text>
</a>
</g>
</g>
<g id="clust4" class="cluster"><title>cluster_file_/Users/sergioc/Documents/workspaces/heal/jpc_examples/src/main/resources/org/jpc/examples/metro/station.lgt</title>
<g id="a_clust4"><a xlink:title="/Users/sergioc/Documents/workspaces/heal/jpc_examples/src/main/resources/org/jpc/examples/metro/station.lgt">
<path fill="snow" stroke="#8b8989" d="M158.5,-67C158.5,-67 240.5,-67 240.5,-67 246.5,-67 252.5,-73 252.5,-79 252.5,-79 252.5,-130 252.5,-130 252.5,-136 246.5,-142 240.5,-142 240.5,-142 158.5,-142 158.5,-142 152.5,-142 146.5,-136 146.5,-130 146.5,-130 146.5,-79 146.5,-79 146.5,-73 152.5,-67 158.5,-67"/>
<text text-anchor="middle" x="188" y="-74" font-family="Courier,monospace" font-size="10.00" fill="#8b8989">station.lgt</text>
</a>
</g>
</g>
<g id="clust5" class="cluster"><title>cluster_file_/Users/sergioc/Documents/workspaces/heal/jpc_examples/src/main/resources/org/jpc/examples/metro/line.lgt</title>
<g id="a_clust5"><a xlink:title="/Users/sergioc/Documents/workspaces/heal/jpc_examples/src/main/resources/org/jpc/examples/metro/line.lgt">
<path fill="snow" stroke="#8b8989" d="M58.5,-67C58.5,-67 124.5,-67 124.5,-67 130.5,-67 136.5,-73 136.5,-79 136.5,-79 136.5,-130 136.5,-130 136.5,-136 130.5,-142 124.5,-142 124.5,-142 58.5,-142 58.5,-142 52.5,-142 46.5,-136 46.5,-130 46.5,-130 46.5,-79 46.5,-79 46.5,-73 52.5,-67 58.5,-67"/>
<text text-anchor="middle" x="79" y="-74" font-family="Courier,monospace" font-size="10.00" fill="#8b8989">line.lgt</text>
</a>
</g>
</g>
<g id="clust8" class="cluster"><title>cluster_other</title>
<g id="a_clust8"><a xlink:title="(external entities)">
<path fill="white" stroke="#8b8989" d="M81.5,-339C81.5,-339 188.5,-339 188.5,-339 194.5,-339 200.5,-345 200.5,-351 200.5,-351 200.5,-402 200.5,-402 200.5,-408 194.5,-414 188.5,-414 188.5,-414 81.5,-414 81.5,-414 75.5,-414 69.5,-408 69.5,-402 69.5,-402 69.5,-351 69.5,-351 69.5,-345 75.5,-339 81.5,-339"/>
<text text-anchor="middle" x="135" y="-346" font-family="Courier,monospace" font-size="10.00" fill="#8b8989">(external entities)</text>
</a>
</g>
</g>
<!-- metro -->
<g id="node1" class="node"><title>metro</title>
<g id="a_node1"><a xlink:title="prototype">
<polygon fill="beige" stroke="black" points="156.5,-268 102.5,-268 102.5,-232 156.5,-232 156.5,-268"/>
<text text-anchor="start" x="116" y="-248.8" font-family="Courier,monospace" font-weight="bold" font-size="9.00">metro</text>
</a>
</g>
</g>
<!-- list -->
<g id="node4" class="node"><title>list</title>
<g id="a_node4"><a xlink:title="prototype">
<polygon fill="beige" stroke="black" stroke-dasharray="5,2" points="156.5,-404 102.5,-404 102.5,-368 156.5,-368 156.5,-404"/>
<text text-anchor="start" x="118.5" y="-384.8" font-family="Courier,monospace" font-weight="bold" font-size="9.00">list</text>
</a>
</g>
</g>
<!-- metro&#45;&gt;list -->
<g id="edge1" class="edge"><title>metro&#45;&gt;list</title>
<g id="a_edge1"><a xlink:title="uses">
<path fill="none" stroke="black" d="M129.5,-268.244C129.5,-290.355 129.5,-329.03 129.5,-355.776"/>
<polygon fill="black" stroke="black" points="129.5,-355.822 133.5,-361.822 129.5,-367.822 129.5,-355.822"/>
</a>
</g>
<text text-anchor="start" x="129.5" y="-315.8" font-family="Courier,monospace" font-size="9.00">uses</text>
</g>
<!-- station(Name) -->
<g id="node2" class="node"><title>station(Name)</title>
<g id="a_node2"><a xlink:title="prototype">
<polygon fill="beige" stroke="black" points="242,-132 157,-132 157,-96 242,-96 242,-132"/>
<text text-anchor="start" x="165" y="-112.8" font-family="Courier,monospace" font-weight="bold" font-size="9.00">station(Name)</text>
</a>
</g>
</g>
<!-- station(Name)&#45;&gt;metro -->
<g id="edge2" class="edge"><title>station(Name)&#45;&gt;metro</title>
<g id="a_edge2"><a xlink:title="uses">
<path fill="none" stroke="black" d="M190.492,-132.244C178.784,-154.657 158.185,-194.088 144.198,-220.863"/>
<polygon fill="black" stroke="black" points="144.03,-221.186 144.797,-228.356 138.473,-231.822 144.03,-221.186"/>
</a>
</g>
<text text-anchor="start" x="166.5" y="-179.8" font-family="Courier,monospace" font-size="9.00">uses</text>
</g>
<!-- line(Name) -->
<g id="node3" class="node"><title>line(Name)</title>
<g id="a_node3"><a xlink:title="prototype">
<polygon fill="beige" stroke="black" points="126,-132 57,-132 57,-96 126,-96 126,-132"/>
<text text-anchor="start" x="65" y="-112.8" font-family="Courier,monospace" font-weight="bold" font-size="9.00">line(Name)</text>
</a>
</g>
</g>
<!-- line(Name)&#45;&gt;metro -->
<g id="edge3" class="edge"><title>line(Name)&#45;&gt;metro</title>
<g id="a_edge3"><a xlink:title="uses">
<path fill="none" stroke="black" d="M96.39,-132.244C102.689,-154.456 113.728,-193.382 121.316,-220.14"/>
<polygon fill="black" stroke="black" points="121.355,-220.278 126.84,-224.959 124.629,-231.822 121.355,-220.278"/>
</a>
</g>
<text text-anchor="start" x="111.5" y="-179.8" font-family="Courier,monospace" font-size="9.00">uses</text>
</g>
</g>
</svg>
